<?xml version="1.0" standalone="no"?>
<!DOCTYPE svg PUBLIC "-//W3C//DTD SVG 20010904//EN"
 "http://www.w3.org/TR/2001/REC-SVG-20010904/DTD/svg10.dtd">
<svg version="1.0" xmlns="http://www.w3.org/2000/svg"
 width="512.000000pt" height="512.000000pt" viewBox="0 0 512.000000 512.000000"
 preserveAspectRatio="xMidYMid meet">
<metadata>
Created by potrace 1.15, written by Peter Selinger 2001-2017
</metadata>
<g transform="translate(0.000000,512.000000) scale(0.100000,-0.100000)"
fill="#444" stroke="#888" stroke-width="4">
<path className="path" d="M2385 5103 c-162 -34 -302 -111 -426 -233 -116 -114 -167 -194 -346
-540 -581 -1119 -1317 -2650 -1391 -2892 -72 -233 -70 -503 5 -711 122 -340
385 -586 738 -693 120 -36 370 -46 510 -19 328 60 629 238 950 560 l130 130
125 -125 c325 -326 628 -505 955 -565 140 -27 390 -17 510 19 505 152 824 601
802 1130 -9 217 -40 303 -350 961 -482 1025 -1174 2400 -1299 2582 -112 163
-266 293 -423 357 -135 55 -340 71 -490 39z m336 -353 c128 -39 224 -112 308
-235 166 -242 1436 -2833 1542 -3147 73 -216 60 -429 -38 -628 -40 -81 -61
-109 -142 -191 -82 -82 -110 -102 -191 -142 -117 -58 -187 -77 -310 -84 -225
-13 -458 72 -710 260 -85 63 -390 350 -390 367 0 4 26 41 58 81 423 540 628
1050 584 1451 -32 296 -202 537 -466 662 -239 114 -503 123 -754 26 -111 -42
-217 -116 -311 -216 -66 -70 -91 -105 -130 -187 -75 -155 -86 -211 -85 -412 1
-156 3 -179 31 -285 85 -319 257 -648 524 -1002 71 -94 88 -122 80 -136 -14
-26 -248 -251 -326 -314 -99 -79 -231 -163 -328 -208 -130 -61 -214 -81 -362
-87 -112 -5 -143 -2 -215 16 -318 80 -541 328 -580 645 -19 155 11 306 104
518 303 693 1351 2801 1499 3016 81 117 169 186 297 229 87 30 221 31 311 3z
m-16 -1854 c132 -35 231 -102 298 -203 114 -172 125 -378 35 -652 -41 -124
-163 -365 -259 -512 -88 -134 -209 -299 -220 -299 -12 0 -169 217 -251 349
-226 360 -323 688 -274 923 41 190 186 341 377 392 69 19 229 20 294 2z"/>
</g>
</svg>
